<?xml version="1.0" encoding="utf-8"?>
<!-- Generator: Adobe Illustrator 14.0.0, SVG Export Plug-In . SVG Version: 6.00 Build 43363)  -->
<!DOCTYPE svg PUBLIC "-//W3C//DTD SVG 1.1//EN" "http://www.w3.org/Graphics/SVG/1.1/DTD/svg11.dtd">
<svg version="1.1" id="레이어_1" xmlns="http://www.w3.org/2000/svg" xmlns:xlink="http://www.w3.org/1999/xlink" x="0px"
	 y="0px" width="558px" height="130px" viewBox="0 0 558 130" style="enable-background:new 0 0 558 130;" xml:space="preserve">
<style type="text/css">
.st0{fill:#187FC4;
		animation: color 2s infinite;
	}
	.st0:nth-child(1){animation-delay:.1s;}
	.st0:nth-child(2){animation-delay:.2s;}
	.st0:nth-child(3){animation-delay:.3s;}
	.st0:nth-child(4){animation-delay:.4s;}
	.st0:nth-child(5){animation-delay:.5s;}
	.st0:nth-child(6){animation-delay:.6s;}
	.st0:nth-child(7){animation-delay:.7s;}
	.st0:nth-child(8){animation-delay:.8s;}
	.st0:nth-child(9){animation-delay:.9s;}
	@keyframes color{
		50%{fill:#69f;}
	}

	.st1{fill:#fff;stroke:#187FC4; stroke-width:3;
		stroke-dashArray:1000px;
		animation: line 10s infinite;
	}
	@keyframes line{
		100%{stroke-dashoffset: 2000px;}
	}
</style>
<path class="st1" d="M11.784,9.346l-1,108.534h35.989V83.591h3.149c8.973,0,15.76-0.481,20.75-1.471l0.163-0.033
	c4.345-0.947,8.609-2.86,12.674-5.686c0.979-0.681,1.913-1.425,2.812-2.219c-0.008,0.342-0.032,0.683-0.032,1.024
	c0,9.01,1.797,16.899,5.341,23.45c3.72,6.873,9.209,12.152,16.317,15.693c6.683,3.33,13.816,5.018,21.2,5.018
	c12.166,0,22.451-4.196,30.57-12.47c1.848-1.885,3.478-3.889,4.907-5.999v16.98h35.059V88.724c0-14.086,0.796-18.484,1.139-19.723
	c0.463-1.677,0.896-2.478,1.081-2.771c0.135-0.038,0.364-0.063,0.62-0.063c0.276,0,1.334,0.104,3.393,1.437l9.368,6.063l0.309-0.871
	V85.81c0,8.723,0.361,11.958,0.684,13.763c0.67,4.134,1.992,7.626,3.93,10.378c2.145,3.05,5.295,5.457,9.358,7.153
	c3.593,1.503,7.596,2.265,11.897,2.265c5.747,0,11.069-0.938,15.86-2.771v1.283h35.989V79.25h26.104
	c0.465,7.34,2.197,13.859,5.201,19.407c3.72,6.873,9.209,12.152,16.316,15.693c6.685,3.33,13.817,5.018,21.2,5.018
	c12.167,0,22.45-4.196,30.569-12.47c3.459-3.527,6.181-7.456,8.171-11.762v22.743h34.021h1.039h34.021v-17.552
	c3.679,6.055,8.815,10.777,15.33,14.022c6.685,3.33,13.817,5.018,21.2,5.018c12.167,0,22.451-4.196,30.569-12.47
	c8.072-8.229,12.164-18.641,12.164-30.947c0-12.228-4.064-22.559-12.08-30.707c-8.055-8.187-18.41-12.337-30.778-12.337
	c-7.91,0-15.222,1.802-21.736,5.355c-6.153,3.356-11.069,8.146-14.669,14.226V34.34h-34.021v-3.149h34.021V9.346h-34.021h-1.039
	h-34.021v47.5c-1.974-4.248-4.667-8.125-8.087-11.602c-8.055-8.187-18.41-12.337-30.778-12.337c-7.91,0-15.222,1.802-21.737,5.355
	c-1.038,0.566-2.029,1.187-2.999,1.834V9.346h-79.949v25.05h-6.608V4.632l-35.121,20.426v9.338h-1.682
	c-3.018-0.978-6.117-1.489-9.279-1.489c-2.937,0-5.713,0.5-8.299,1.489h-31.707v16.72c-1.409-2.065-3.01-4.028-4.824-5.872
	c-8.055-8.187-18.41-12.337-30.777-12.337c-7.91,0-15.225,1.802-21.738,5.355c-3.49,1.903-6.578,4.271-9.261,7.066
	c-0.137-8.835-2.501-16.335-7.073-22.28c-4.719-6.132-10.72-10.187-17.787-12.037c-2.891-0.775-8.244-1.665-24.11-1.665H11.667"/>
<g>
	<path class="st0" d="M18.972,109.225V18.326h29.452c11.161,0,18.436,0.455,21.826,1.363c5.208,1.364,9.569,4.332,13.083,8.899
		c3.513,4.566,5.27,10.469,5.27,17.702c0,5.58-1.013,10.272-3.038,14.076c-2.026,3.803-4.599,6.789-7.72,8.959
		c-3.122,2.17-6.293,3.606-9.518,4.31c-4.382,0.868-10.727,1.301-19.036,1.301H37.325v34.29H18.972z M37.325,33.703v25.794H47.37
		c7.233,0,12.069-0.475,14.509-1.427c2.438-0.95,4.35-2.438,5.736-4.463c1.384-2.024,2.077-4.381,2.077-7.068
		c0-3.307-0.972-6.035-2.915-8.185c-1.943-2.149-4.402-3.493-7.378-4.03c-2.191-0.413-6.594-0.62-13.208-0.62H37.325z"/>
	<path class="st0" d="M94.477,75.369c0-5.786,1.427-11.387,4.279-16.803c2.852-5.415,6.893-9.548,12.122-12.401
		s11.068-4.278,17.516-4.278c9.962,0,18.126,3.234,24.493,9.705c6.365,6.468,9.548,14.643,9.548,24.521
		c0,9.963-3.214,18.22-9.642,24.771c-6.428,6.552-14.52,9.828-24.275,9.828c-6.036,0-11.792-1.364-17.268-4.093
		c-5.478-2.729-9.642-6.728-12.494-11.998S94.477,82.935,94.477,75.369z M112.334,76.299c0,6.532,1.55,11.534,4.65,15.006
		c3.1,3.473,6.923,5.208,11.471,5.208c4.546,0,8.36-1.735,11.439-5.208c3.079-3.472,4.62-8.516,4.62-15.129
		c0-6.448-1.541-11.409-4.62-14.881c-3.08-3.473-6.893-5.208-11.439-5.208c-4.547,0-8.371,1.735-11.471,5.208
		C113.884,64.767,112.334,69.769,112.334,76.299z"/>
	<path class="st0" d="M190.235,109.225h-17.423V43.375h16.183v9.363c2.77-4.424,5.26-7.337,7.472-8.743
		c2.21-1.405,4.722-2.108,7.534-2.108c3.968,0,7.791,1.096,11.47,3.286l-5.394,15.192c-2.936-1.902-5.664-2.853-8.185-2.853
		c-2.439,0-4.506,0.673-6.2,2.015c-1.695,1.345-3.028,3.773-4,7.286c-0.972,3.514-1.457,10.872-1.457,22.072V109.225z"/>
	<path class="st0" d="M253.17,43.375v13.89h-11.905v26.537c0,5.375,0.114,8.506,0.341,9.395c0.227,0.89,0.744,1.623,1.55,2.201
		c0.806,0.579,1.788,0.868,2.945,0.868c1.612,0,3.947-0.559,7.007-1.674l1.488,13.517c-4.051,1.735-8.64,2.604-13.765,2.604
		c-3.143,0-5.974-0.528-8.495-1.582c-2.521-1.053-4.371-2.417-5.549-4.092c-1.179-1.674-1.996-3.938-2.449-6.79
		c-0.373-2.025-0.559-6.116-0.559-12.277V57.265h-7.999v-13.89h7.999V30.293l17.485-10.17v23.252H253.17z"/>
	<path class="st0" d="M265.509,109.225V18.326h62.314v15.376h-43.961v21.516h37.948v15.376h-37.948v38.63H265.509z"/>
	<path class="st0" d="M327.462,75.369c0-5.786,1.424-11.387,4.278-16.803c2.852-5.415,6.892-9.548,12.122-12.401
		c5.228-2.853,11.066-4.278,17.515-4.278c9.962,0,18.127,3.234,24.492,9.705c6.365,6.468,9.549,14.643,9.549,24.521
		c0,9.963-3.214,18.22-9.643,24.771c-6.426,6.552-14.518,9.828-24.273,9.828c-6.035,0-11.792-1.364-17.269-4.093
		s-9.642-6.728-12.493-11.998C328.886,89.352,327.462,82.935,327.462,75.369z M345.318,76.299c0,6.532,1.55,11.534,4.65,15.006
		c3.1,3.473,6.923,5.208,11.472,5.208c4.547,0,8.36-1.735,11.438-5.208c3.08-3.472,4.62-8.516,4.62-15.129
		c0-6.448-1.54-11.409-4.62-14.881c-3.078-3.473-6.892-5.208-11.438-5.208c-4.549,0-8.372,1.735-11.472,5.208
		C346.868,64.767,345.318,69.769,345.318,76.299z"/>
	<path class="st0" d="M411.579,109.225V18.326h17.424v90.898H411.579z"/>
	<rect x="443.081" y="18.326" class="st0" width="17.424" height="9.403"/>
	<rect x="443.081" y="39.701" class="st0" width="17.424" height="69.523"/>
	<path class="st0" d="M473.072,75.369c0-5.786,1.424-11.387,4.278-16.803c2.852-5.415,6.892-9.548,12.122-12.401
		c5.228-2.853,11.066-4.278,17.515-4.278c9.962,0,18.128,3.234,24.492,9.705c6.365,6.468,9.549,14.643,9.549,24.521
		c0,9.963-3.214,18.22-9.643,24.771c-6.426,6.552-14.518,9.828-24.273,9.828c-6.035,0-11.792-1.364-17.269-4.093
		s-9.642-6.728-12.493-11.998C474.496,89.352,473.072,82.935,473.072,75.369z M490.929,76.299c0,6.532,1.55,11.534,4.65,15.006
		c3.1,3.473,6.923,5.208,11.472,5.208c4.547,0,8.36-1.735,11.438-5.208c3.08-3.472,4.62-8.516,4.62-15.129
		c0-6.448-1.54-11.409-4.62-14.881c-3.078-3.473-6.892-5.208-11.438-5.208c-4.549,0-8.372,1.735-11.472,5.208
		C492.479,64.767,490.929,69.769,490.929,76.299z"/>
</g>
</svg>
